<svg width="27" height="18" viewBox="0 0 27 18" fill="none" xmlns="http://www.w3.org/2000/svg">
<path d="M21.1144 17.1603H2.19604C1.44971 17.1603 0.844727 16.5552 0.844727 15.8089C0.844727 15.0627 1.44971 14.4576 2.19604 14.4576H21.1144C21.8607 14.4576 22.4657 15.0627 22.4657 15.8089C22.4657 16.5552 21.8607 17.1603 21.1144 17.1603Z" fill="black"/>
<path d="M25.6188 10.4037H6.70044C5.9541 10.4037 5.34912 9.79874 5.34912 9.05245C5.34912 8.30616 5.9541 7.70113 6.70044 7.70113H25.6188C26.3651 7.70113 26.9701 8.30611 26.9701 9.05245C26.9701 9.79879 26.3651 10.4037 25.6188 10.4037Z" fill="black"/>
<path d="M21.1144 3.64717H2.19604C1.44971 3.64717 0.844727 3.04219 0.844727 2.29585C0.844727 1.54951 1.44971 0.944534 2.19604 0.944534H21.1144C21.8607 0.944534 22.4657 1.54951 22.4657 2.29585C22.4657 3.04219 21.8607 3.64717 21.1144 3.64717Z" fill="black"/>
</svg>
